<mxfile host="app.diagrams.net" modified="2024-04-24T09:07:49.715Z" agent="Mozilla/5.0 (Windows NT 10.0; Win64; x64) AppleWebKit/537.36 (KHTML, like Gecko) Chrome/124.0.0.0 Safari/537.36" etag="p0AT10VK9TQ0zjhkRWkb" version="24.2.8" type="device" pages="4">
  <diagram id="R2lEEEUBdFMjLlhIrx00" name="Relaciones">
    <mxGraphModel dx="1434" dy="786" grid="1" gridSize="10" guides="1" tooltips="1" connect="1" arrows="1" fold="1" page="1" pageScale="1" pageWidth="850" pageHeight="1100" math="0" shadow="0" extFonts="Permanent Marker^https://fonts.googleapis.com/css?family=Permanent+Marker">
      <root>
        <mxCell id="0" />
        <mxCell id="1" parent="0" />
        <mxCell id="WTKt-sS17JTXk2NsRY8R-1" value="Profesores" style="whiteSpace=wrap;html=1;align=center;" vertex="1" parent="1">
          <mxGeometry x="200" y="380" width="100" height="40" as="geometry" />
        </mxCell>
        <mxCell id="WTKt-sS17JTXk2NsRY8R-2" value="Cursos" style="whiteSpace=wrap;html=1;align=center;" vertex="1" parent="1">
          <mxGeometry x="570" y="380" width="100" height="40" as="geometry" />
        </mxCell>
        <mxCell id="WTKt-sS17JTXk2NsRY8R-4" style="edgeStyle=orthogonalEdgeStyle;rounded=0;orthogonalLoop=1;jettySize=auto;html=1;entryX=0;entryY=0.5;entryDx=0;entryDy=0;" edge="1" parent="1" source="WTKt-sS17JTXk2NsRY8R-3" target="WTKt-sS17JTXk2NsRY8R-2">
          <mxGeometry relative="1" as="geometry" />
        </mxCell>
        <mxCell id="WTKt-sS17JTXk2NsRY8R-5" style="edgeStyle=orthogonalEdgeStyle;rounded=0;orthogonalLoop=1;jettySize=auto;html=1;entryX=1;entryY=0.5;entryDx=0;entryDy=0;" edge="1" parent="1" source="WTKt-sS17JTXk2NsRY8R-3" target="WTKt-sS17JTXk2NsRY8R-1">
          <mxGeometry relative="1" as="geometry" />
        </mxCell>
        <mxCell id="WTKt-sS17JTXk2NsRY8R-3" value="imparte" style="shape=rhombus;perimeter=rhombusPerimeter;whiteSpace=wrap;html=1;align=center;" vertex="1" parent="1">
          <mxGeometry x="365" y="370" width="120" height="60" as="geometry" />
        </mxCell>
        <mxCell id="WTKt-sS17JTXk2NsRY8R-7" style="edgeStyle=orthogonalEdgeStyle;rounded=0;orthogonalLoop=1;jettySize=auto;html=1;entryX=0.5;entryY=1;entryDx=0;entryDy=0;" edge="1" parent="1" source="WTKt-sS17JTXk2NsRY8R-6" target="WTKt-sS17JTXk2NsRY8R-2">
          <mxGeometry relative="1" as="geometry" />
        </mxCell>
        <mxCell id="WTKt-sS17JTXk2NsRY8R-8" style="edgeStyle=orthogonalEdgeStyle;rounded=0;orthogonalLoop=1;jettySize=auto;html=1;entryX=0.5;entryY=1;entryDx=0;entryDy=0;" edge="1" parent="1" source="WTKt-sS17JTXk2NsRY8R-6" target="WTKt-sS17JTXk2NsRY8R-1">
          <mxGeometry relative="1" as="geometry" />
        </mxCell>
        <mxCell id="WTKt-sS17JTXk2NsRY8R-6" value="recibe" style="shape=rhombus;perimeter=rhombusPerimeter;whiteSpace=wrap;html=1;align=center;" vertex="1" parent="1">
          <mxGeometry x="365" y="473" width="120" height="60" as="geometry" />
        </mxCell>
      </root>
    </mxGraphModel>
  </diagram>
  <diagram id="J-ixHxo5sdT9zsKXX6VZ" name="Relacion Recursiva/Reflexiva">
    <mxGraphModel dx="1434" dy="786" grid="1" gridSize="10" guides="1" tooltips="1" connect="1" arrows="1" fold="1" page="1" pageScale="1" pageWidth="827" pageHeight="1169" math="0" shadow="0">
      <root>
        <mxCell id="0" />
        <mxCell id="1" parent="0" />
        <mxCell id="S2PB5hhmHJcMTx6T6eE1-6" style="edgeStyle=orthogonalEdgeStyle;rounded=0;orthogonalLoop=1;jettySize=auto;html=1;entryX=0.5;entryY=0;entryDx=0;entryDy=0;" edge="1" parent="1" source="S2PB5hhmHJcMTx6T6eE1-1" target="S2PB5hhmHJcMTx6T6eE1-2">
          <mxGeometry relative="1" as="geometry" />
        </mxCell>
        <mxCell id="S2PB5hhmHJcMTx6T6eE1-1" value="Temas" style="whiteSpace=wrap;html=1;align=center;" vertex="1" parent="1">
          <mxGeometry x="210" y="350" width="100" height="40" as="geometry" />
        </mxCell>
        <mxCell id="S2PB5hhmHJcMTx6T6eE1-3" style="edgeStyle=orthogonalEdgeStyle;rounded=0;orthogonalLoop=1;jettySize=auto;html=1;" edge="1" parent="1" source="S2PB5hhmHJcMTx6T6eE1-2" target="S2PB5hhmHJcMTx6T6eE1-1">
          <mxGeometry relative="1" as="geometry" />
        </mxCell>
        <mxCell id="S2PB5hhmHJcMTx6T6eE1-2" value="consta" style="shape=rhombus;perimeter=rhombusPerimeter;whiteSpace=wrap;html=1;align=center;" vertex="1" parent="1">
          <mxGeometry x="350" y="483" width="120" height="60" as="geometry" />
        </mxCell>
      </root>
    </mxGraphModel>
  </diagram>
  <diagram id="6MFuyxgd6g7S8Rqf-2by" name="Relaciones teranarias o de grado 3">
    <mxGraphModel dx="1434" dy="786" grid="1" gridSize="10" guides="1" tooltips="1" connect="1" arrows="1" fold="1" page="1" pageScale="1" pageWidth="827" pageHeight="1169" math="0" shadow="0">
      <root>
        <mxCell id="0" />
        <mxCell id="1" parent="0" />
        <mxCell id="ebedn5m8-lKFDlXHB_3i-1" value="Profesores" style="whiteSpace=wrap;html=1;align=center;" vertex="1" parent="1">
          <mxGeometry x="200" y="380" width="100" height="40" as="geometry" />
        </mxCell>
        <mxCell id="ebedn5m8-lKFDlXHB_3i-2" value="Cursos" style="whiteSpace=wrap;html=1;align=center;" vertex="1" parent="1">
          <mxGeometry x="570" y="380" width="100" height="40" as="geometry" />
        </mxCell>
        <mxCell id="ebedn5m8-lKFDlXHB_3i-3" style="edgeStyle=orthogonalEdgeStyle;rounded=0;orthogonalLoop=1;jettySize=auto;html=1;entryX=0;entryY=0.5;entryDx=0;entryDy=0;" edge="1" parent="1" source="ebedn5m8-lKFDlXHB_3i-5" target="ebedn5m8-lKFDlXHB_3i-2">
          <mxGeometry relative="1" as="geometry" />
        </mxCell>
        <mxCell id="ebedn5m8-lKFDlXHB_3i-4" style="edgeStyle=orthogonalEdgeStyle;rounded=0;orthogonalLoop=1;jettySize=auto;html=1;entryX=1;entryY=0.5;entryDx=0;entryDy=0;" edge="1" parent="1" source="ebedn5m8-lKFDlXHB_3i-5" target="ebedn5m8-lKFDlXHB_3i-1">
          <mxGeometry relative="1" as="geometry" />
        </mxCell>
        <mxCell id="ebedn5m8-lKFDlXHB_3i-10" style="edgeStyle=orthogonalEdgeStyle;rounded=0;orthogonalLoop=1;jettySize=auto;html=1;entryX=0.5;entryY=0;entryDx=0;entryDy=0;" edge="1" parent="1" source="ebedn5m8-lKFDlXHB_3i-5" target="ebedn5m8-lKFDlXHB_3i-9">
          <mxGeometry relative="1" as="geometry" />
        </mxCell>
        <mxCell id="ebedn5m8-lKFDlXHB_3i-5" value="imparte" style="shape=rhombus;perimeter=rhombusPerimeter;whiteSpace=wrap;html=1;align=center;" vertex="1" parent="1">
          <mxGeometry x="365" y="370" width="120" height="60" as="geometry" />
        </mxCell>
        <mxCell id="ebedn5m8-lKFDlXHB_3i-9" value="Temas" style="whiteSpace=wrap;html=1;align=center;" vertex="1" parent="1">
          <mxGeometry x="375" y="480" width="100" height="40" as="geometry" />
        </mxCell>
      </root>
    </mxGraphModel>
  </diagram>
  <diagram id="2XLdwxBaGNztXyWVPrKc" name="Relaciones Grados">
    <mxGraphModel dx="1434" dy="786" grid="1" gridSize="10" guides="1" tooltips="1" connect="1" arrows="1" fold="1" page="1" pageScale="1" pageWidth="827" pageHeight="1169" math="0" shadow="0">
      <root>
        <mxCell id="0" />
        <mxCell id="1" parent="0" />
        <mxCell id="Gp9tqwC5N3gMmpmQdCxH-1" value="Proveedores" style="whiteSpace=wrap;html=1;align=center;" vertex="1" parent="1">
          <mxGeometry x="200" y="290" width="100" height="40" as="geometry" />
        </mxCell>
        <mxCell id="Gp9tqwC5N3gMmpmQdCxH-2" value="Proyectos" style="whiteSpace=wrap;html=1;align=center;" vertex="1" parent="1">
          <mxGeometry x="570" y="290" width="100" height="40" as="geometry" />
        </mxCell>
        <mxCell id="Gp9tqwC5N3gMmpmQdCxH-3" style="edgeStyle=orthogonalEdgeStyle;rounded=0;orthogonalLoop=1;jettySize=auto;html=1;entryX=0;entryY=0.5;entryDx=0;entryDy=0;" edge="1" parent="1" source="Gp9tqwC5N3gMmpmQdCxH-5" target="Gp9tqwC5N3gMmpmQdCxH-2">
          <mxGeometry relative="1" as="geometry" />
        </mxCell>
        <mxCell id="Gp9tqwC5N3gMmpmQdCxH-13" value="(0,n)" style="edgeLabel;html=1;align=center;verticalAlign=middle;resizable=0;points=[];" vertex="1" connectable="0" parent="Gp9tqwC5N3gMmpmQdCxH-3">
          <mxGeometry x="0.0118" relative="1" as="geometry">
            <mxPoint as="offset" />
          </mxGeometry>
        </mxCell>
        <mxCell id="Gp9tqwC5N3gMmpmQdCxH-4" style="edgeStyle=orthogonalEdgeStyle;rounded=0;orthogonalLoop=1;jettySize=auto;html=1;entryX=1;entryY=0.5;entryDx=0;entryDy=0;" edge="1" parent="1" source="Gp9tqwC5N3gMmpmQdCxH-5" target="Gp9tqwC5N3gMmpmQdCxH-1">
          <mxGeometry relative="1" as="geometry" />
        </mxCell>
        <mxCell id="Gp9tqwC5N3gMmpmQdCxH-10" value="(0,n)" style="edgeLabel;html=1;align=center;verticalAlign=middle;resizable=0;points=[];" vertex="1" connectable="0" parent="Gp9tqwC5N3gMmpmQdCxH-4">
          <mxGeometry x="-0.1077" y="-2" relative="1" as="geometry">
            <mxPoint as="offset" />
          </mxGeometry>
        </mxCell>
        <mxCell id="Gp9tqwC5N3gMmpmQdCxH-5" value="interviene" style="shape=rhombus;perimeter=rhombusPerimeter;whiteSpace=wrap;html=1;align=center;" vertex="1" parent="1">
          <mxGeometry x="365" y="280" width="120" height="60" as="geometry" />
        </mxCell>
        <mxCell id="Gp9tqwC5N3gMmpmQdCxH-14" style="edgeStyle=orthogonalEdgeStyle;rounded=0;orthogonalLoop=1;jettySize=auto;html=1;entryX=0.5;entryY=1;entryDx=0;entryDy=0;" edge="1" parent="1" source="Gp9tqwC5N3gMmpmQdCxH-8" target="Gp9tqwC5N3gMmpmQdCxH-1">
          <mxGeometry relative="1" as="geometry" />
        </mxCell>
        <mxCell id="Gp9tqwC5N3gMmpmQdCxH-16" value="(0,n)" style="edgeLabel;html=1;align=center;verticalAlign=middle;resizable=0;points=[];" vertex="1" connectable="0" parent="Gp9tqwC5N3gMmpmQdCxH-14">
          <mxGeometry x="-0.1429" y="2" relative="1" as="geometry">
            <mxPoint as="offset" />
          </mxGeometry>
        </mxCell>
        <mxCell id="Gp9tqwC5N3gMmpmQdCxH-15" style="edgeStyle=orthogonalEdgeStyle;rounded=0;orthogonalLoop=1;jettySize=auto;html=1;entryX=0;entryY=0.25;entryDx=0;entryDy=0;" edge="1" parent="1" source="Gp9tqwC5N3gMmpmQdCxH-8" target="Gp9tqwC5N3gMmpmQdCxH-9">
          <mxGeometry relative="1" as="geometry" />
        </mxCell>
        <mxCell id="Gp9tqwC5N3gMmpmQdCxH-17" value="(1,n)" style="edgeLabel;html=1;align=center;verticalAlign=middle;resizable=0;points=[];" vertex="1" connectable="0" parent="Gp9tqwC5N3gMmpmQdCxH-15">
          <mxGeometry x="-0.2615" y="-2" relative="1" as="geometry">
            <mxPoint as="offset" />
          </mxGeometry>
        </mxCell>
        <mxCell id="Gp9tqwC5N3gMmpmQdCxH-8" value="puede suministrar" style="shape=rhombus;perimeter=rhombusPerimeter;whiteSpace=wrap;html=1;align=center;" vertex="1" parent="1">
          <mxGeometry x="190" y="580" width="120" height="60" as="geometry" />
        </mxCell>
        <mxCell id="Gp9tqwC5N3gMmpmQdCxH-9" value="Piezas" style="whiteSpace=wrap;html=1;align=center;" vertex="1" parent="1">
          <mxGeometry x="375" y="600" width="100" height="40" as="geometry" />
        </mxCell>
        <mxCell id="Gp9tqwC5N3gMmpmQdCxH-19" style="edgeStyle=orthogonalEdgeStyle;rounded=0;orthogonalLoop=1;jettySize=auto;html=1;entryX=0.5;entryY=1;entryDx=0;entryDy=0;" edge="1" parent="1" source="Gp9tqwC5N3gMmpmQdCxH-18" target="Gp9tqwC5N3gMmpmQdCxH-2">
          <mxGeometry relative="1" as="geometry" />
        </mxCell>
        <mxCell id="Gp9tqwC5N3gMmpmQdCxH-36" value="(0,n)" style="edgeLabel;html=1;align=center;verticalAlign=middle;resizable=0;points=[];" vertex="1" connectable="0" parent="Gp9tqwC5N3gMmpmQdCxH-19">
          <mxGeometry x="-0.0462" y="-1" relative="1" as="geometry">
            <mxPoint as="offset" />
          </mxGeometry>
        </mxCell>
        <mxCell id="Gp9tqwC5N3gMmpmQdCxH-34" style="edgeStyle=orthogonalEdgeStyle;rounded=0;orthogonalLoop=1;jettySize=auto;html=1;entryX=1;entryY=0.5;entryDx=0;entryDy=0;" edge="1" parent="1" source="Gp9tqwC5N3gMmpmQdCxH-18" target="Gp9tqwC5N3gMmpmQdCxH-9">
          <mxGeometry relative="1" as="geometry" />
        </mxCell>
        <mxCell id="Gp9tqwC5N3gMmpmQdCxH-35" value="(1,n)" style="edgeLabel;html=1;align=center;verticalAlign=middle;resizable=0;points=[];" vertex="1" connectable="0" parent="Gp9tqwC5N3gMmpmQdCxH-34">
          <mxGeometry x="0.0824" y="-1" relative="1" as="geometry">
            <mxPoint as="offset" />
          </mxGeometry>
        </mxCell>
        <mxCell id="Gp9tqwC5N3gMmpmQdCxH-18" value="necesitan" style="shape=rhombus;perimeter=rhombusPerimeter;whiteSpace=wrap;html=1;align=center;" vertex="1" parent="1">
          <mxGeometry x="560" y="590" width="120" height="60" as="geometry" />
        </mxCell>
        <mxCell id="Gp9tqwC5N3gMmpmQdCxH-23" style="edgeStyle=orthogonalEdgeStyle;rounded=0;orthogonalLoop=1;jettySize=auto;html=1;entryX=0.5;entryY=0;entryDx=0;entryDy=0;" edge="1" parent="1" source="Gp9tqwC5N3gMmpmQdCxH-22" target="Gp9tqwC5N3gMmpmQdCxH-9">
          <mxGeometry relative="1" as="geometry" />
        </mxCell>
        <mxCell id="Gp9tqwC5N3gMmpmQdCxH-33" value="(1,n)" style="edgeLabel;html=1;align=center;verticalAlign=middle;resizable=0;points=[];" vertex="1" connectable="0" parent="Gp9tqwC5N3gMmpmQdCxH-23">
          <mxGeometry x="0.1111" y="1" relative="1" as="geometry">
            <mxPoint as="offset" />
          </mxGeometry>
        </mxCell>
        <mxCell id="Gp9tqwC5N3gMmpmQdCxH-25" style="edgeStyle=orthogonalEdgeStyle;rounded=0;orthogonalLoop=1;jettySize=auto;html=1;entryX=0.75;entryY=1;entryDx=0;entryDy=0;" edge="1" parent="1" source="Gp9tqwC5N3gMmpmQdCxH-22" target="Gp9tqwC5N3gMmpmQdCxH-1">
          <mxGeometry relative="1" as="geometry" />
        </mxCell>
        <mxCell id="Gp9tqwC5N3gMmpmQdCxH-31" value="(1,n)" style="edgeLabel;html=1;align=center;verticalAlign=middle;resizable=0;points=[];" vertex="1" connectable="0" parent="Gp9tqwC5N3gMmpmQdCxH-25">
          <mxGeometry x="-0.5167" y="1" relative="1" as="geometry">
            <mxPoint as="offset" />
          </mxGeometry>
        </mxCell>
        <mxCell id="Gp9tqwC5N3gMmpmQdCxH-29" style="edgeStyle=orthogonalEdgeStyle;rounded=0;orthogonalLoop=1;jettySize=auto;html=1;exitX=1;exitY=0;exitDx=0;exitDy=0;entryX=0.5;entryY=1;entryDx=0;entryDy=0;" edge="1" parent="1" source="Gp9tqwC5N3gMmpmQdCxH-22" target="Gp9tqwC5N3gMmpmQdCxH-28">
          <mxGeometry relative="1" as="geometry" />
        </mxCell>
        <mxCell id="Gp9tqwC5N3gMmpmQdCxH-30" style="edgeStyle=orthogonalEdgeStyle;rounded=0;orthogonalLoop=1;jettySize=auto;html=1;exitX=0;exitY=0;exitDx=0;exitDy=0;entryX=0.5;entryY=1;entryDx=0;entryDy=0;" edge="1" parent="1" source="Gp9tqwC5N3gMmpmQdCxH-22" target="Gp9tqwC5N3gMmpmQdCxH-27">
          <mxGeometry relative="1" as="geometry" />
        </mxCell>
        <mxCell id="Gp9tqwC5N3gMmpmQdCxH-22" value="suministra" style="shape=rhombus;perimeter=rhombusPerimeter;whiteSpace=wrap;html=1;align=center;" vertex="1" parent="1">
          <mxGeometry x="365" y="450" width="120" height="60" as="geometry" />
        </mxCell>
        <mxCell id="Gp9tqwC5N3gMmpmQdCxH-24" style="edgeStyle=orthogonalEdgeStyle;rounded=0;orthogonalLoop=1;jettySize=auto;html=1;entryX=0.17;entryY=1.05;entryDx=0;entryDy=0;entryPerimeter=0;" edge="1" parent="1" source="Gp9tqwC5N3gMmpmQdCxH-22" target="Gp9tqwC5N3gMmpmQdCxH-2">
          <mxGeometry relative="1" as="geometry" />
        </mxCell>
        <mxCell id="Gp9tqwC5N3gMmpmQdCxH-32" value="(1,n)" style="edgeLabel;html=1;align=center;verticalAlign=middle;resizable=0;points=[];" vertex="1" connectable="0" parent="Gp9tqwC5N3gMmpmQdCxH-24">
          <mxGeometry x="-0.432" y="-1" relative="1" as="geometry">
            <mxPoint as="offset" />
          </mxGeometry>
        </mxCell>
        <mxCell id="Gp9tqwC5N3gMmpmQdCxH-27" value="cantidad" style="ellipse;whiteSpace=wrap;html=1;align=center;" vertex="1" parent="1">
          <mxGeometry x="300" y="377" width="100" height="40" as="geometry" />
        </mxCell>
        <mxCell id="Gp9tqwC5N3gMmpmQdCxH-28" value="precio" style="ellipse;whiteSpace=wrap;html=1;align=center;" vertex="1" parent="1">
          <mxGeometry x="450" y="377" width="100" height="40" as="geometry" />
        </mxCell>
      </root>
    </mxGraphModel>
  </diagram>
</mxfile>
